<?xml version="1.0" standalone="no"?>
<!DOCTYPE svg PUBLIC "-//W3C//DTD SVG 20010904//EN"
 "http://www.w3.org/TR/2001/REC-SVG-20010904/DTD/svg10.dtd">
<svg version="1.0" xmlns="http://www.w3.org/2000/svg"
 width="512.000000pt" height="512.000000pt" viewBox="0 0 512.000000 512.000000"
 preserveAspectRatio="xMidYMid meet">
<metadata>
Created by potrace 1.14, written by Peter Selinger 2001-2017
</metadata>
<g transform="translate(0.000000,512.000000) scale(0.100000,-0.100000)"
fill="#000000" stroke="none">
<path d="M3507 4946 c-56 -16 -115 -53 -165 -103 -32 -32 -39 -35 -78 -30 -27
3 -72 21 -115 47 -113 67 -187 65 -230 -9 -34 -55 -79 -99 -110 -106 -30 -7
-88 21 -144 71 -73 64 -127 72 -232 38 -42 -14 -82 -33 -89 -42 -27 -35 -33
-24 183 -328 50 -71 61 -110 40 -139 -14 -18 -28 -20 -163 -21 -172 -2 -214
-13 -261 -72 -16 -20 -112 -147 -213 -282 -180 -240 -221 -290 -241 -290 -18
0 -24 -2 -34 -10 -29 -23 -187 -36 -530 -45 -573 -15 -584 -15 -623 -41 -17
-11 -21 -21 -16 -37 4 -12 60 -128 124 -257 65 -129 141 -286 169 -348 89
-196 160 -432 186 -627 21 -149 26 -188 29 -235 13 -150 18 -270 19 -424 l1
-168 151 6 c82 4 166 9 185 10 19 2 78 7 130 11 52 4 99 9 104 12 4 3 6 64 5
137 l-4 131 27 13 c15 7 56 15 90 18 92 8 138 22 139 42 0 9 0 36 -1 60 -2 56
8 113 24 135 21 27 226 44 226 18 0 -6 -26 -45 -59 -88 -166 -221 -270 -488
-275 -707 -3 -121 6 -184 40 -296 66 -216 222 -435 409 -575 22 -16 42 -33 45
-36 13 -16 127 -83 193 -113 186 -86 326 -111 602 -111 209 1 277 6 485 39
145 23 160 26 225 43 33 8 70 17 82 19 49 9 234 79 314 118 268 134 433 320
480 545 28 132 -11 426 -83 630 -125 355 -391 707 -762 1009 l-77 63 4 57 c6
69 35 125 100 194 76 82 91 124 73 204 -7 30 -3 34 58 82 54 43 68 60 86 109
35 89 32 163 -7 242 -38 74 -37 94 8 203 29 72 37 136 20 180 -12 33 -88 106
-133 129 -21 11 -91 33 -156 50 -64 17 -124 37 -132 45 -58 57 100 361 319
613 50 58 91 108 91 112 0 10 -86 28 -157 32 -42 3 -67 9 -79 22 -52 52 -203
78 -297 51z"/>
</g>
</svg>
