<?xml version="1.0" standalone="no"?>
<!DOCTYPE svg PUBLIC "-//W3C//DTD SVG 20010904//EN"
 "http://www.w3.org/TR/2001/REC-SVG-20010904/DTD/svg10.dtd">
<svg version="1.0" xmlns="http://www.w3.org/2000/svg"
 width="512.000000pt" height="512.000000pt" viewBox="0 0 512.000000 512.000000"
 preserveAspectRatio="xMidYMid meet">
<metadata>
Created by potrace 1.14, written by Peter Selinger 2001-2017
</metadata>
<g transform="translate(0.000000,512.000000) scale(0.100000,-0.100000)"
fill="#000000" stroke="none">
<path d="M3358 4746 c-53 -14 -109 -49 -156 -96 -29 -29 -37 -31 -70 -25 -20
4 -70 25 -109 46 -49 27 -86 40 -113 41 -41 0 -90 -23 -90 -44 0 -20 -71 -98
-94 -104 -26 -6 -83 15 -109 40 -9 10 -43 33 -74 52 -61 36 -70 37 -170 8 -29
-8 -62 -23 -74 -33 -19 -16 -21 -21 -11 -49 6 -17 53 -91 105 -164 111 -156
118 -168 112 -198 -8 -40 -25 -44 -196 -40 -102 2 -153 -15 -197 -65 -20 -24
-116 -149 -212 -278 l-175 -235 -65 -21 c-84 -27 -206 -35 -680 -46 -124 -3
-252 -8 -285 -11 -57 -5 -105 -25 -105 -42 0 -5 56 -121 123 -258 68 -137 141
-287 161 -334 21 -47 41 -94 46 -105 29 -64 92 -303 105 -395 3 -25 8 -52 10
-60 7 -25 19 -134 30 -260 4 -36 8 -153 10 -260 2 -107 4 -201 5 -209 0 -11
25 -13 142 -7 79 3 154 8 168 10 14 3 65 7 114 11 50 3 92 8 94 10 5 5 6 67 2
174 -3 78 6 88 85 96 68 7 89 10 125 20 24 6 26 9 24 73 -1 37 3 83 9 102 12
34 13 35 88 45 43 6 89 7 108 3 l32 -9 -40 -47 c-157 -189 -271 -468 -275
-676 -6 -252 90 -483 281 -681 245 -253 507 -358 886 -357 105 0 267 9 297 17
8 2 40 6 70 10 30 3 66 7 80 10 13 3 42 7 65 11 177 26 382 90 530 166 157 81
296 207 357 323 56 108 68 169 64 320 -2 72 -7 137 -10 145 -3 8 -7 29 -10 45
-8 56 -27 130 -48 195 -12 36 -23 67 -23 70 -4 17 -44 104 -78 169 -126 244
-325 482 -582 696 -101 84 -96 78 -91 126 5 60 16 99 27 99 5 0 9 6 9 13 1 6
23 37 51 67 62 67 82 110 74 157 -3 19 -7 39 -10 42 -4 8 16 30 80 85 44 37
75 107 83 183 3 33 -3 57 -28 108 -36 75 -36 97 6 199 13 33 24 80 24 104 0
111 -117 196 -315 229 -46 8 -84 31 -90 56 -16 63 93 271 239 457 28 35 58 72
66 80 33 35 80 94 80 100 0 12 -84 30 -139 30 -37 0 -56 6 -78 23 -59 50 -174
68 -265 43z"/>
</g>
</svg>
